<svg width="20" height="20" viewBox="0 0 20 20" fill="none" xmlns="http://www.w3.org/2000/svg">
<g clip-path="url(#clip0_2_239)">
<path d="M16.3806 2.52254H12.8592C12.6349 1.09826 11.4349 0 9.96209 0C8.48927 0 7.26612 1.09826 7.06496 2.52254H3.59446C2.91931 2.52254 2.37134 3.07283 2.37134 3.74566V4.99422C2.37134 5.61851 2.8199 6.11791 3.42106 6.19191V18.3769C3.42106 19.2763 4.14475 20 5.04417 20H14.9563C15.8557 20 16.5794 19.2763 16.5794 18.3769V6.21504C17.1783 6.11561 17.6291 5.61621 17.6291 5.01735V3.7688C17.6037 3.07283 17.0534 2.52254 16.3806 2.52254ZM9.96209 0.924855C10.9355 0.924855 11.7355 1.60001 11.9089 2.52254H7.98982C8.18868 1.62312 8.98867 0.924855 9.96209 0.924855ZM15.6314 18.4046C15.6314 18.7792 15.3309 19.1029 14.9332 19.1029H5.01874C4.64418 19.1029 4.32048 18.8023 4.32048 18.4046V6.24277H15.6084V18.4046H15.6314ZM16.6789 4.99422C16.6789 5.16994 16.554 5.29481 16.3783 5.29481H3.59214C3.41641 5.29481 3.29155 5.16994 3.29155 4.99422V3.74566C3.29155 3.56993 3.41641 3.44507 3.59214 3.44507H16.3528C16.5286 3.44507 16.6534 3.56993 16.6534 3.74566V4.99422H16.6789ZM6.39213 16.7052V8.8162C6.39213 8.5665 6.59097 8.36764 6.8407 8.36764C7.09042 8.36764 7.28926 8.56647 7.28926 8.8162V16.7052C7.28926 16.9549 7.09042 17.1538 6.8407 17.1538C6.59099 17.1815 6.39213 16.9549 6.39213 16.7052ZM9.5621 16.7052V8.8162C9.5621 8.5665 9.76093 8.36764 10.0107 8.36764C10.2604 8.36764 10.4592 8.56647 10.4592 8.8162V16.7052C10.4592 16.9549 10.2604 17.1538 10.0107 17.1538C9.76323 17.1815 9.5621 16.9549 9.5621 16.7052ZM12.7343 16.7052V8.8162C12.7343 8.5665 12.9332 8.36764 13.1829 8.36764C13.4326 8.36764 13.6315 8.56647 13.6315 8.8162V16.7052C13.6315 16.9549 13.4326 17.1538 13.1829 17.1538C12.9586 17.1815 12.7343 16.9549 12.7343 16.7052Z" fill="#FDE8E9" stroke="#FDE8E9" stroke-width="0.45"/>
</g>
<defs>
<clipPath id="clip0_2_239">
<rect width="20" height="20" fill="white"/>
</clipPath>
</defs>
</svg>
